<svg xmlns="http://www.w3.org/2000/svg" width="1024" height="1024" id="dress">
  <path d="M255.947 98.8312C277.086 91.8372 290.298 70.8619 296.229 50.4176C301.631 51.7588 319.851 58.5925 324.781 61.3629C314.46 73.6861 314.355 95.565 321.129 109.331C335.162 137.85 334.16 140.809 321.929 170.855C304.888 212.718 310.032 227.75 326.541 266.763C342.815 305.222 355.688 346.592 366.974 386.694L370.792 400.168C372.58 406.277 377.17 414.067 372.07 419.513C360.145 432.25 341.967 430.081 326.757 430.685C326.665 437.215 318.037 441.907 313.168 444.742C279.469 464.365 217.071 464.756 188.357 436.493C186.268 434.304 186.023 432.291 186.023 429.407C172.553 431.664 156.068 431.314 144.343 423.678C133.73 416.765 137.936 410.88 140.749 400.823L146.26 381.043C155.627 347.713 166.563 314.07 179.561 281.925C187.529 262.22 201.906 230.801 201.283 210.172C200.293 177.368 166.828 149.374 187.135 115.392C196.725 99.3444 197.233 92.3013 193.069 72.9159C192.037 68.1104 192.016 64.2349 187.576 61.3629C196.779 57.4302 206.551 53.3049 216.148 50.4176C221.903 70.7754 235.292 91.3406 255.947 98.8312ZM303.903 65.7747C300.935 70.6781 298.581 75.8108 295.32 80.5644C288.222 90.9148 271.171 107.571 258.252 110.545C242.346 114.207 213.977 78.8993 208.933 65.7747C207.238 66.437 205.509 67.0605 203.857 67.8238C206.359 79.2442 208.251 90.9289 205.521 102.526C201.514 119.548 189.076 125.876 192.796 146.613C194.382 155.453 199.129 163.074 202.255 171.361C204.395 176.456 206.519 181.725 208.141 187.009C216.942 183.304 225.528 179.474 233.858 174.788C250.316 165.531 251.293 157.69 269.125 169.147C276.379 173.808 283.806 178.265 291.758 181.647C295.828 183.377 300.051 184.818 303.903 187.009C306.074 180.537 308.266 174.039 310.859 167.722C316.957 152.863 324.244 139.979 316.079 123.585C314.148 119.71 311.513 116.276 309.763 112.291C303.64 98.339 304.09 82.1839 308.456 67.8238C306.959 67.119 305.458 66.3421 303.903 65.7747ZM255.947 174.462C241.553 182.478 227.389 193.688 211.135 197.528C211.724 201.524 212.359 205.524 212.832 209.535C225.404 204.924 237.665 199.718 248.845 192.242C251.106 190.729 253.185 189.227 255.947 188.798C259.722 189.695 262.28 191.925 265.446 194.067C277.749 202.395 287.861 203.881 300.209 209.535C300.523 205.514 301.05 201.525 301.573 197.528C290.504 193.878 280.198 189.29 270.177 183.307C265.423 180.469 260.918 176.89 255.947 174.462ZM255.947 201.208C241.973 210.004 227.654 216.508 211.891 221.399C209.007 241.051 198.836 265.081 191.603 283.458C174.935 325.804 161.532 369.191 149.532 413.074C162.29 421.981 175.063 417.61 188.357 417.59C190.141 402.611 194.526 385.546 197.732 370.733L202.968 347.557C203.827 343.892 204.783 335.115 207.909 332.671C212.321 329.223 218.174 333.544 216.878 339.443L203.406 401.028C201.422 410.475 199.336 419.898 197.671 429.407C216.063 442.364 232.999 447.131 255.947 446.758C277.353 446.839 297.538 441.947 315.154 429.407C309.674 401.328 302.826 373.535 297.3 345.481C296.603 341.943 294.678 337.499 296.841 334.116C298.533 331.471 302.527 331.151 304.924 332.959C308.077 335.339 308.725 342.925 309.534 346.493L313.396 364.151C317.144 381.967 320.682 399.851 324.781 417.59C343.488 420.353 346.051 418.995 361.978 413.074C361.377 409.135 360.116 405.297 359.011 401.475L354.214 384.886C342.795 344.599 329.417 304.98 313.623 266.202C307.607 251.431 301.431 236.676 300.209 220.584C287.929 218.017 275.861 213.067 264.86 207.099C262.757 205.958 257.428 201.784 255.947 201.208Z" transform="scale(2)"></path>
</svg>
